<svg id="Layer_1" data-name="Layer 1" xmlns="http://www.w3.org/2000/svg" viewBox="0 0 253.71 236.76" fill="currentColor"><path d="M193.43,160.52l.63-1.19c-.63,3.44-.39,4.51-3.68,6.37-3,1.7-5.19,4-5.86,7.5-.3,1.58-1.48,2.06-2.69,2.41-4.36,1.26-7.33,4.17-9.71,7.84-.2.29-.37.6-.57.89-.07.11-.19.18-.57.1a41.62,41.62,0,0,1,2.36-3.62c2.35-2.93,5.11-5.32,9-6a1.77,1.77,0,0,0,1.53-1.6A10.2,10.2,0,0,1,186.5,168c.27-.28.29-.79.45-1.28.15.05.46.24.58.15,1.57-1.07,3.11-2.17,4.64-3.29.19-.14.43-.45.39-.64-.22-1.31-.5-2.62-.75-3.87-.6.6-.6.6-.64,2.62,0,.73,0,1.44-.89,1L188,165.46l-.77-.87-.35,1.08-.24,0-.57-2.64-.51.06c.14,1.57.27,3.13.4,4.61l-1.34.56c-.25-1.62.36-3.84-2.74-4.34.42.6.66.94.91,1.27s.63.57.64.86c0,1.55,0,3.1-.08,4.65a2.53,2.53,0,0,1-.48,1.23c-.38-.63-1.7-1.18-.1-1.92,0,0,.09-.06.09-.09a32.71,32.71,0,0,0-.06-4c-1.63,1.48-2.19-.77-3.45-.62l-.53.73c-.23-1.16-.43-2.13-.63-3.09h-.41l-.16,2.78-1-.95-.24,1.17-.27.18-.49-1.33-.35.16-.26,2-1.89-1.52-.5,2.39-.6-.68-1.51,3.12-1-.72.16,2.69-1.16-.77.25,2.62-1.08-1.5-.31.1.44,4.27-.29.07-.76-1.68-.34,1.13-1.47-.95-.27.17,1.09,2.66.57-.54,1.76,2.4.37-.25-.42-1.29c3.59-.49,5-4,8.06-5.62l.36,2.28-1.15-.64c-.69.91-.94,2.38-2.62,2.27-.07.33-.15.67-.21,1-.09.6.18,1.33-.78,1.6-.22.06-.23.86-.37,1.46l-.89-.88c-.47,1.47-.94,2.9-1.4,4.34l-.28,0-.54-1.67-.4,0c0,1,.09,1.91.14,2.91-1.82.19-3.38-1.75-5.38-.71l-.77-1.05-.44,1.92-.45-.05-.38-1.21h-.42l0,1.23-.28.11c-.12-.51-.47-1.12-.31-1.5a1.92,1.92,0,0,1,1.32-.77,18,18,0,0,1,2.56-.07l0-1.38.93.72c-.24-1.93-.12-3.73-1.83-4.77a3.75,3.75,0,0,1-2.08-3.14c0-.21-.22-.42-.33-.63l-.37.05.16,2.23-2.43,1.34-.78-1.77-.33,0-.12,1.75-1.5.16-.64-1.72h-.31l-.59,4.61-.36,0-.85-1.48-.33,0,0,3.69-.35.05-.61-3.1-.37,0c.05,1,.06,2,.16,3a3.45,3.45,0,0,1-.64,2.48,1,1,0,0,0,.1.91,3.65,3.65,0,0,0,1.35,1.14l-.66-1.91c.69.66,1.16,1.45,1.81,1.63s1.34-.34,2.14-.58c-.08,1.34-.16,2.75-.24,4.16l-.31.07-.57-1.4-.28,0c0,1,0,2.06-.08,3.09l-.28,0-.32-.92-.28,0,.1,1.71-.38.06-.42-3.15-.33-.09c.09,3.43-.25,6.73-2.49,9.58a5.9,5.9,0,0,1-.46-.39c-.15-.16-.28-.33-.5-.59-.39,1.39-1.25,1.4-2.29,1-.23-.1-.67-.19-.73-.1-.54.81-1.22.42-1.9.33a3.13,3.13,0,0,0-1.1.27c-.41-.33-.65-1.46-1.72-.63-.11.09-.63-.34-1.15-.64a4.37,4.37,0,0,0,.07.9c.26.82.14.76-.65,1.09a9.18,9.18,0,0,0-2,1.64l-2.2-2.35-.38.22.84,1.54c-.39.74-.36.71-1.05,0a1,1,0,0,0-.91-.1c-.29.12-.5.46-.74.71l.68,1.49-.92.6c.18.31.5.63.44.82-.25.74.39,1.85-.5,2.07-.1.95-.54,2-.2,2.52,1,1.5-.1,2.9.08,4.35a49.66,49.66,0,0,1-.09,5.31c.07,4.95.16,9.9.33,14.86a30.57,30.57,0,0,0,.65,4l-.49.09c-.19-1.1-.32-2.23-.6-3.31s.52-2.34-1.14-2.92l-.5,3.9h-.24c0-1.51-.08-3-.09-4.54,0-2.84,0-5.68,0-8.52a6,6,0,0,0-.31-1.14,7,7,0,0,1-.33-1.67c0-1.45.11-2.9.24-4.34a6.8,6.8,0,0,1,.36-1.38c-.27-2.36-.52-4.48-.78-6.66-1.35.53-1.25-1.05-2.38-1.61.37,3.37,1.68,6.44,1.06,9.61l-.45.06c-.08-.61-.21-1.22-.24-1.82-.06-1.29-.06-2.58-.1-3.86-.07-1.89-1.16-3.1-3.16-4-.45-.6-.88-1.22-1.34-1.81-.85-1.08-1.79-2.09-2.55-3.23a2.73,2.73,0,0,1-.22-1.65c.24-2.66.59-5.31.78-8a8.18,8.18,0,0,0-.39-2.72c-.41-1.39-.82-2.74-.1-4.14a.83.83,0,0,0,.08-.39c0-4.46,2.38-8,4.73-11.48a49.83,49.83,0,0,0,6.41-12.51,7.17,7.17,0,0,1,1.39-2.57c-.45,1.32-.8,2.68-1.37,4-1.26,2.78-2.65,5.5-3.94,8.27a22.83,22.83,0,0,0-.86,2.49l.56.23,2.11-4.44c.15-.32.22-.74.47-.93a6.78,6.78,0,0,0,2.39-4.67c.09-.55,1-.94.44-1.73a1.64,1.64,0,0,1,.53-.39,4.83,4.83,0,0,1,1,0l-.45-1.14c-.07-.16-.17-.3-.3-.54a2.49,2.49,0,0,0,1.22-2.79,6.17,6.17,0,0,1,.67-2.68c.88-2.2,1.87-4.37,2.75-6.57a5.3,5.3,0,0,0,.21-1.65c.12-1.93.22-3.85.34-5.78,0-.59,1.09-1.24-.34-1.86l-.8,6.29-.47,0a40.65,40.65,0,0,0,.29-15.39l.43-.08.76,2.22a3.56,3.56,0,0,0-1.14-4.57c-.35,1.89-2.09.33-3,1.26.11.21.17.58.34.63,1.66.51,1.57,2,1.77,3.25a27.38,27.38,0,0,1-.69,11.87,16.43,16.43,0,0,0-.37,2.9,14.54,14.54,0,0,1-1.66,5.56,27.12,27.12,0,0,0-1.8,5.37c-.32,1.14-2.21,3-3.38,3.08a2.34,2.34,0,0,1-2.43-1.7,24.19,24.19,0,0,1-1.45-8.47c-.18-4.25,1.09-8.25,2-12.32.14-.6.27-1.2.42-1.89-9.77,9.65-17.49,20.47-21.54,33.71-.59-.66-.52-.63.27-2.38.35-.79.22-1.78.52-2.61a17.18,17.18,0,0,1,1.29-2.43l-.4-.25-3.14,4.81,1,.05a4.73,4.73,0,0,0-.36.6c-.26.73-1.44,1.32-.37,2.26a.15.15,0,0,1,0,.13c-.91,1.5-1.79,3-2.75,4.48-.39.6-1,1-1.44,1.63-.94,1.41-1.8,2.87-2.7,4.32l-.36-.23L98,177.55c-2,1.12-2.37,3.08-2.69,5.11,2.56-.74,2.86-3.46,4.37-5.23l-.39,1.35.19.09,2.34-3.72.33.17c-1,2.19-2,4.46-3.2,6.55a55.54,55.54,0,0,1-4.65,6.8,33.23,33.23,0,0,1-4.81,4.75c-2.54,2.08-5.33,3.85-7.85,6-3,2.46-6.12,2.62-9.63,1.56a5.48,5.48,0,0,0-3.35,0c-2.52,1-4.45.22-6.17-1.48a11.19,11.19,0,0,0-7-2.85c-1.13-.12-2.53.73-3.53,1.49a35,35,0,0,0-3.39,3.49c-.44.44-1.07.69-1.47,1.16-3.27,3.74-6.56,7.46-9.74,11.28-2.21,2.66-4.28,5.43-6.37,8.19-2.85,3.73-5.58,7.56-8.5,11.23a62.46,62.46,0,0,1-6,6.59,12.05,12.05,0,0,1-4.22,2.35c-2.13.76-3.43-.43-3.2-2.63a5.53,5.53,0,0,0,0-1.72c-.42-2,.61-3.47,1.72-4.94a14.13,14.13,0,0,0,1-1.65,6,6,0,0,1,.58-1c2.65-3,5.27-6.12,8-9.09,3.28-3.56,7.2-6.46,10.47-10,3.76-4.08,7.32-8.34,10.88-12.6,1.32-1.59,2.39-3.39,3.57-5.09a2.84,2.84,0,0,0,.34-.58c.93-2.51,2-5,2.72-7.55a12.79,12.79,0,0,0-.48-8.7,2.65,2.65,0,0,0-.58-.88c-1.51-1.37-1.74-3.05-1.51-5a18.5,18.5,0,0,1,3.08-8.68c1.67-2.36,1.39-6.19-.36-8.66-.59-.83-1.11-1.73-1.77-2.5-2-2.34-1.59-4.76-.2-7.14a8,8,0,0,0,1.05-5.74,13.46,13.46,0,0,0-1-2.84c-.81-1.83-2.4-3.43-1.86-5.66a17.37,17.37,0,0,1,1.08-2.52A13.45,13.45,0,0,0,46.94,124a4.89,4.89,0,0,1,1.44-3,39.72,39.72,0,0,1,11.26-7.48c1.32-.64,2.59-1.35,4-2.09a11.66,11.66,0,0,0-5.17-3.08c-3.33-1.12-6.58-2.32-9.36-4.61-3.63-3-6.17-6.65-6.8-11.36-.43-3.25-.46-6.55-.79-9.81-.18-1.79-.74-3.55-.89-5.35-.29-3.44-.41-6.9-.62-10.35-.08-1.18-.27-2.35-.3-3.53,0-.29.38-.59.68-1a9.43,9.43,0,0,1-1.23-4c-.23-2.77-.9-5.5-1.38-8.24-.29-1.66-.48-3.33-.86-5C35.86,40.51,34.69,36,33.61,31.4c-.32-1.32-.46-2.68-.74-4-.23-1.07-.56-2.12-.81-3.18a8.94,8.94,0,0,1-.38-2.08c0-.45.27-1.19.57-1.28,1-.28.87-1,.9-1.66.05-.89,0-1.78.16-2.66a3.64,3.64,0,0,1,2-3,10.75,10.75,0,0,0,1.63-1.16,10.1,10.1,0,0,1,7.93-2.11c1.85.26,3.74.28,5.57.66a39.44,39.44,0,0,1,5.72,1.68c6,2.21,11.37,5.64,16.7,9.13,2.62,1.72,5.31,3.34,8,5A28.48,28.48,0,0,1,84,29.16c5.1,4.41,10.14,8.89,15.24,13.3,3,2.56,5.88,5.06,8.15,8.34,3.56,5.15,7.51,10,11.18,15.12q5.82,8,11.43,16.24c2.78,4.06,5.39,8.25,8.06,12.39a4.79,4.79,0,0,1,.37.71c1,2.36,1,2.36,3.17.88a9.75,9.75,0,0,0,1.13,1.26c.19.14.6,0,.92,0-.07-.28,0-.71-.2-.8-1.5-.84-.57-1.43.18-2,1.28-1,2.8-1.92,2.18-4a.27.27,0,0,1,.09-.24c1.92-1.58.88-3.47.57-5.29s-.57-3.83-.95-5.73c-.81-4-.91-8.1-2.54-11.91a47.16,47.16,0,0,0-5.66-10.51c-.53-.69-1.38-1.13-1.93-1.81a4.72,4.72,0,0,1-.51-1.59c.52,0,1.25-.09,1.52.2a21.82,21.82,0,0,1,3.3,4,47.85,47.85,0,0,1,4,8.2,69.17,69.17,0,0,1,2,9.31c.66,3.44,1.17,6.9,1.85,10.33a3.44,3.44,0,0,0,3.55,2.8,1.52,1.52,0,0,1,1.62.74,2.77,2.77,0,0,0,3.83.26c3.57-3.77,7.2-7.49,10.64-11.38a24.53,24.53,0,0,0,5.68-11.83c.25-1.3.49-2.59-.38-3.85a1.08,1.08,0,0,1,.64-1.79c.83-.23,1.3,0,1.63,1,.4,1.21-.2,2.21-.18,3.28A11.5,11.5,0,0,1,173.46,69a11.75,11.75,0,0,1-.85,2.21,61.93,61.93,0,0,1-4.79,7.66c-3.08,3.77-6.55,7.22-9.79,10.87A25.93,25.93,0,0,0,156,92.84l-.39-.66L154.19,94c-.5-.81-.5-.81.91-3-.07-.06-.17-.22-.26-.22-1.16.07-2.28.1-2.84-1.26-.05-.13-.55-.06-.84-.1l-1.82-.29c-.19,0-.51-.09-.57,0s-.23.56-.13.68c.72.92-.15,1.21-.62,1.89l-.75-1.22c-1.22,1.25,1,1.84.43,2.92a6.1,6.1,0,0,1,3.71-3.18,5.84,5.84,0,0,1,.14,1,3,3,0,0,0,.91,2.33c1.35,1.54,2.48,3.22,1.15,5.47-.34.58,0,1.55,0,2.45l-1-.13,1.37,3c.37-.19,1-.3,1.08-.58.49-1.54,1.71-1.53,3-1.83,1.11-.25,2.07-1.17,3.11-1.76,4-2.27,7.94-4.46,12.12-6.35,9-4.06,17.92-8.4,26.86-12.66,9.82-4.69,19.65-9.39,30-12.73a115.3,115.3,0,0,1,14.23-3.81,48.5,48.5,0,0,1,11-.45A15,15,0,0,1,260.73,66c1.75.82,2.44,3,1.76,5.32-.91,3.14-1.88,6.28-3.06,9.32a34.56,34.56,0,0,1-2.92,5.46,73.05,73.05,0,0,1-4.34,6.52,124.67,124.67,0,0,1-13.09,13.71c-2.78,2.62-5.87,4.93-8.57,7.62s-5.25,5.76-7.79,8.71a67,67,0,0,0-5.37,6.57,25,25,0,0,1-6.57,6.72c-4,2.8-8.6,3.67-13.38,3.58-2.62-.05-5.22-.4-8-.63a6.13,6.13,0,0,0,.64.67,12.33,12.33,0,0,1,4.44,6.44c1.11,3.8,1.82,7.5.07,11.48,0-.49,0-.8,0-1.11s.14-.7.15-1c0-1.81.16-3.63,0-5.43a11.58,11.58,0,0,0-1-2.85,1.47,1.47,0,0,0,.08-.86c-.37-1-.92-1.86-2.38-1.61l2,3.92-1.16-.45,2,3.25-.49,0-.53,9.16ZM59.19,163.3l.92-1.4-.42-.35-1.87,1.89.32.37,1.11-.55-.78,1.53.39.24,2.25-2.4-.18-.27Zm87.42-1.42-3.51-1a17.14,17.14,0,0,1,.79,1.87,1.5,1.5,0,0,1-.17,1c-.07.14-.4.15-.62.23a2.52,2.52,0,0,0,.3.81,18.38,18.38,0,0,0,1.42,1.19c-2,.16-.94,1.1-.66,1.78a3.19,3.19,0,0,0-.75,4.65c.45-2,.88-4,1.25-5.67l1.45-.25a19.78,19.78,0,0,0,0,2.31c0,.2.5.36.76.54a2.75,2.75,0,0,0,.17-.91c-.05-.47-.45-1.22-.3-1.35,1.48-1.18.15-2-.11-2.78a1.91,1.91,0,0,0,.57-1.22,4.1,4.1,0,0,0-.65-1.26l1.05-.19c-.49-1-1.19-1.86-.44-2.94.1-.14-.63-1.08-1.14-1.37s-1,0-2,.13l1.8,2.64-1.39-.37-.24.39c.33.26.66.52,1,.76ZM50.22,78c.77,2-1.07,3.37-.81,5.22l1.46.35-.71.65c1.45,1,2.05-.37,2.9-.85,1-.58,1.06-1.65,1.11-2.71a15.25,15.25,0,0,0,.3-3c-.29-1.81-1.11-3.36-3.43-3.49l.31-.49,4.2,1.43.15-.34a4,4,0,0,0-.91-.54c-1.49-.4-3-.81-4.51-1.09-1.14-.21-1.38.23-1,1.38s.66,2.37,1,3.55l-.89-1.42c-.8,1.15,0,1.94.38,2.81Zm102.44,69.77c1.35.09,1.56-1.09,2.07-1.89a22.11,22.11,0,0,0,1.42-2.57,4,4,0,0,0,.07-1.33l-2.26,2.1c-.24-1.46-1.94-2.44-.48-3.93.07-.08-.09-.35-.06-.51a6.27,6.27,0,0,1,.3-1.13c.55-1.4,2.77-2.51.75-4.36,0,0,0-.16,0,0l1.05-.65,1.27,1.23.19-.2-.72-2.85,1.07.34,1.19-1.68-.55-1.16,3.58,3c.41-1.72-1.44-1.7-1.68-2.92l1.89,1.35.25-.34-5.65-4,.06-.13,3.12,1.3.19-.34-9-6.09-.62.61,2.29,2-.25.5-2.22.09.78,1.44-.53.35-1.32-2.61-.54.33c.48,1,.95,2,1.43,3.07l-.13.08-2.14-2.23-.24.22c.69,1.09,1.37,2.17,2.23,3.55-1.29-.63-1.68-2.51-3.4-1.37l1.48,2.66-.24.1-.83-.78-.17.19.74,1.32-.46.34-2.26-3.71-.37.26,2.89,5-.24.13-2.34-3.28-.3.18c1.13,2.18,2.25,4.37,3.38,6.56l-.44.22-4.6-9-.37.18,3.9,8.46-.26.12-2-3.9c-.75,1-.89,1-2.18,0,.25,3.71,1.64,6.88,1.8,10.26-1.3-1.67-.92-3.93-1.82-5.74l-1.27,9.9,1.4-.74c-.89,1.27-.71,2.66-.76,4.07a26.87,26.87,0,0,1-.85,4.47l-.42-.09c.24-1.87.49-3.75.71-5.63.17-1.4-.11-1.69-1.8-1.63l1.15,1.1c-.59,2.18-1.23,4.53-1.86,6.87l-.72-.89a3.77,3.77,0,0,0-.52.82,1.74,1.74,0,0,0-.11,1c.56,1.49.58,2.81-1,3.74l-.23-1.19-.33-.05c-.38,1.34-.76,2.68-1.15,4a6.92,6.92,0,0,1-.87,2.56c-.94,1.07-.28,1.25.62,1.49l-.74,2.08-1.44.2c.28.33.58.64.85,1s.74,1,1.26,1.68l-1.62,0-.21.39,1.77,1.4c.43-1,.82-1.92,1.22-2.83l.15.09-.85,4.64.31.09,1.39-3.54.75.62.61-2.63.34.09c-.15.66-.33,1.3-.45,2s-.19,1.41-.28,2.11c1.3-1.23,1.47-5.06.75-6,.24-.38.61-.71.58-1s-.44-.55-.75-.71a3.87,3.87,0,0,0-1-.24h0c.54-2.41,1.06-4.82,1.66-7.22a3.56,3.56,0,0,1,.94-1.91c.35-.27,1.19.09,2,.2l1.08-8.49a.64.64,0,0,1,.35.62c-.06,2.48-.16,5-.17,7.45a10.85,10.85,0,0,0,.4,2.06l.56-.09c.14-2.58.27-5.16.4-7.64l3.23,1.24-1.6-9.89c1,1.56.51,3.64,2,5.2l.43-1,.46,0V149a22.05,22.05,0,0,0,2.4,1.87c.63.38,1.58.36.39,1.28-.21.16-.08.76-.12,1.24l1.66-.14.52-1.38c.25,1,.46,2,.72,2.89a2.43,2.43,0,0,0,.46.67c.22-.23.58-.44.63-.7s-.16-.75-.18-1.14c-.07-1.31-1.6-2.51-.31-3.94.07-.08-.11-.47-.25-.65-.34-.42-.73-.81-1.1-1.22ZM96.45,175.3a3.91,3.91,0,0,1-.49,1.18c-1.21,1.37-2.49,2.68-3.71,4-.2.22-.21.61-.31.93l.46.28c.91-1.09,1.82-2.17,2.72-3.26.24-.29.49-.57.72-.86.49-.62,1-1.22,1.43-1.87.06-.09-.35-.47-.54-.71.87-.95,1.75-1.88,2.59-2.85a10.58,10.58,0,0,0,1.34-1.79c.13-.24-.14-.7-.25-1.19,1.13-1.78,2.4-3.77,3.65-5.78a1.56,1.56,0,0,0,.08-.59l-.22-.12-2.74,3.79c-2.15-.43-1.66,1.34-2,2.38l-.89-.76c.5-.53.78-1.08-.35-1.37l2.06-2,.4.67,2.06-2.37-.22-.26-1.67,1.05.81-1.91-1.07-.13c1.07-1.49,2.12-2.9,3.1-4.35s1.71-2.79,2.68-4.09c.63-.83,1.59-1.37,1.76-2.56a1.52,1.52,0,0,1,.89-1.08c1.27-.19,1.54-1.21,2.06-2.06.16-.25.43-.59.67-.61a1.44,1.44,0,0,0,1.47-1.66c0-.92.19-1.79,1.45-1.8a1.55,1.55,0,0,0,.8-.45c2.36-2.08,4.82-4.07,7-6.31,1.88-1.91,3.48-4.11,5.2-6.19l1.21.54c-1.15,3.84-2.78,7.47-3.07,11.51.22-2.3,2.19-1.16,3.27-1.73l-.56-1.59,1.22-.44-.83-.43.24-.22.9.05a13.71,13.71,0,0,0,.32,2.11,1.19,1.19,0,0,0,.83.68,1,1,0,0,0,.72-.6c.12-1.61.15-3.23.21-4.65l-2.83.35c.42-1.51.85-2.71,1.09-4,.27-1.44.63-1.8,2.08-1.67a4.46,4.46,0,0,0,.77,0l-2.42-2.31.26-.33a6.93,6.93,0,0,0,.75.2c.48.06,1,.09,1.45.13a11,11,0,0,0-.56-1.52c-.48-.89-1.08-1.72-1.53-2.63a1.5,1.5,0,0,1,.09-1.09c.48-1.07,1-2.1,1.54-3.16l.71.45c.08-.7,0-1.51.29-1.8s1.09.08,2,.2L133.82,117l.27-.25,1.46.18-1.91-2.23c3.06.59,3.65,3.35,5.63,4.64-1.33-2.17-2.67-4.33-4.19-6.8l2.49.8c-.2.52-.66,1.2-.51,1.38a21.76,21.76,0,0,0,2.39,2.22l-.43-1.58,1.55,1.41a1.7,1.7,0,0,0-.16-1.18,23.7,23.7,0,0,1-1.6-3.72c-.28-1.11-.42-2.15-2.16-2.69,2-.56,1.19-2,1.46-3l1.2.16.17-2.13,1.46.55c-.07-.37-.11-.56-.15-.76-.07-.35-.13-.71-.2-1.06a10.51,10.51,0,0,1,1.12.06c.44.07.86.2,1.53.37l-.93-1.56.22-.27,3.16,1.41c.07-1.36.06-2.66.24-3.93,0-.39.64-.7,1.18-1.24l-.61-.94,1.61-.3-.84-2.6-4.45,5.38c-.25.3-.43.91-.69.93-2.11.2-3,1.92-4,3.33-1.15,1.6-1.69,1.78-3.16.44l-.57-.53,2.07-3.34,1.54,1.17.19-.19-1.62-2.34,1.36.6.2-.29a20.5,20.5,0,0,0-2-1.64,1,1,0,0,0-.94.25,16.75,16.75,0,0,0-.7,2.17l-1.1-.56,0,2.61-1.57-.48.48,1.45-2.52.82,1.3,1.08-.47.45-.78.17c-.25.61-.42,1-.55,1.38s-.26.9-.38,1.35a5.56,5.56,0,0,0,1.56.35,13.18,13.18,0,0,0,2.08-.52l-.64-1.07L133,107c-.58-1.26.38-1.3,1.08-1.52l-.5-1.4c1.39.49,2.33,1.24,2.23,2.33-.06.79-.95,1.5-1.57,2.4,0,0,.15.23.41.6l-1.93.31.78.91-2,1.07c.65.51.49,1.06-.4,1.42l1.34,1.62-2-.53,1,1.7h-1.91l1.37,1.47a7.28,7.28,0,0,0-.31.71c-.36,1-.05,2.46-1.83,2.7l1.11.7c-.63,2.11-2,1-3.13.58l1,2.25,1.46-.21,0,.43c-.86.08-1.73.13-2.58.26a3.7,3.7,0,0,0-1,.44l-2.11-.49c.15,1.09.65,1.31,2.23,1-.36.15-.72.44-1.07.43a23.48,23.48,0,0,1-2.57-.3c.37.43.55.55.57.68s0,.54-.12.62c-1.17.72-2.36,1.39-3.54,2.07l.12.3,4.44-1.89.13.23-6.2,4.38.11.24,2.23-.48.14.25-5.15,3.31.07.13,1.17-.28.21.38-5.66,3.69.21.42,3-1.09.16.27-8.25,6.89.75.68-2.66,2.3.23.29,1-.19.24.34-3.59,3.84c-.23.24-.67.57-.62.75.39,1.34-.73,1.52-1.45,2l.87-1.32-.3-.21-2.32,1.26-.12-.2,1.2-1.11A8,8,0,0,0,96.23,156a2,2,0,0,1-2.71.2c2.35-1.12,4.65-2.19,6.33-4.2-2.13.23-3.34,2.53-5.68,2.24l3.26-1.52-.19-.33-1.44.47a11.48,11.48,0,0,1,2.2-1.53c.69-.44,1.31-1,2-1.47l-.22-.31-4.17,2.59-.33-.55,5.35-3,0,.37,1.3,0v-.38l-.69-.13.74-1.12-.23-.33-4.51,2.65-.27-.46c1.58-2.12,4.63-2.21,6.21-4.35a15.66,15.66,0,0,0-2.16,1.1c-.69.4-1.37.93-2.27.39.89-.48,2.29-.81,2.4-1.38.26-1.39,1.39-1.35,2.15-1.9.43-.31.86-.59,1.31-.89l-.58-.56,2.33-1.61-.23-.33-3.53,1.84L102,139c.64.3,1,.47,1.29.6s.78.38.93.26c1.13-.88,2.21-1.84,3.42-2.88l-1.63.29-.1-.32,3.76-2-.08-.2-1.31.06-.06-.17.81-.37-.82-.37,4-2.72a1.09,1.09,0,0,1,.24-.95c.43-.46,1.34-1,1.28-1.31-.23-1.32.66-1.42,1.47-1.76,1-.42,1.94-.94,2.9-1.42l-.25-.54-4.61,1.84-.09-.26,5.22-2.36-.18-.52-2.63.58,1-1-3.6-.09c1.18-.27,2.37-.18,3.53-.33,2-.25,2.49-.58,2.94-1.57l-1.42.07a6,6,0,0,1,1.36-.85,6.16,6.16,0,0,0,.73-.53c-.66-.71.19-.75.48-1a3.58,3.58,0,0,1,1-.39l-.26-.49-6.73.44,0-.52c2.39,0,4.82,0,6.9-1.46l-.7,0,1.07-2.22-1.08,0-.08-.27,2.35-1-2-.7,1.76-.95-1.5-.46c.66-.33,1.18-.56,1.68-.84s.74-.66,1.17-.75a14.32,14.32,0,0,1,2.3-.1l-1.62-1.51-.26.29.76.75a7.13,7.13,0,0,1-1.24-.37c-2.35-1.24-4.93-1.12-7.44-1.13a40.22,40.22,0,0,0-5.61.71c-.24.85-.79,1.19-1.9.39-.42-.3-1.18-.13-1.78-.18l-.2.37c.91.22,1.87.4,1.31,1.61l-1.69.11,1,1.66-1.3.73,1.6.21v.27l-1.82.59c1.53,2-.64,2-1.55,2.76l1.64-.06,0,.27-3.7,1.4.1.3,1.78-.36.12.35L100.81,120l.12.42,3.66-.49-3.74,2.56,1,.37c-.94,3-.94,3-2.18,3.9l1,.69c-.26,2-2.38,1.15-3.51,2.46l2.48-.63c-.62.58-1.32,1-1.61,1.56a5.06,5.06,0,0,1-2.67,2.27l-2.54,1.28a24.64,24.64,0,0,0,3.23-.66,3.71,3.71,0,0,1,1.24.19,4.34,4.34,0,0,1-1,.85c-.76.33-1.57.54-2.36.8.38,1.44-.64,2-1.38,2.78a2.22,2.22,0,0,0-.73,1.1,1.88,1.88,0,0,1-1.37,1.74c-2.47,1-4.92,2.05-7.36,3.12a24.62,24.62,0,0,0-8.44,5.47c2.31-1.23,4.48-2.74,6.84-3.81s4.95-1.75,7.43-2.6l.14.34c-.54.28-1.07.58-1.63.83-3.79,1.72-7.58,3.45-11.4,5.13a17.49,17.49,0,0,1-2.53.71A8.59,8.59,0,0,0,69,153.21c1-.34,1.85-.88,2.8-1.2a47.57,47.57,0,0,0,5-1.43c3.58-1.66,7-3.55,10.57-5.33a7.65,7.65,0,0,1,1-.34,2.14,2.14,0,0,1-1,1c-2.2,1.16-4.42,2.29-6.61,3.47-.25.13-.39.47-.58.72a3.37,3.37,0,0,0,1,.08c1.58-.38,3.15-.8,5-1.27L77.3,153.4l.16.3,8.21-3.19.1.21-.9.63.08.18,1.81-.68a1.33,1.33,0,0,1-.69.81c-3.76,2-7.54,4-11.28,6a5.93,5.93,0,0,0-1.13,1.06l.33.41,13.23-6.62.18.33-13.31,7,.27.51,12.17-6.16.16.32-11.94,6.2c3.8-.68,7-2.94,10.58-4a31.57,31.57,0,0,1-3.43,2l-9.64,4.93a4.74,4.74,0,0,0-2.8,2.48c1.33-.65,2.43-1.16,2.76-2.52,1.09-.25,2.25.37,3.32-.45a35.65,35.65,0,0,1,3.14-1.93h0a10.51,10.51,0,0,1-1.69,2,26.64,26.64,0,0,1-2.73,1.35c-.3.17-.44.63-.65,1l.28.32,8.59-4.6.12.22-3.06,2,.12.21,5.71-2.74.16.36c-.93,1.1-2.82.93-3.58,2.64l1.32,0,0,1.11L84.8,164l-.3,1.38,1.92-1.4-.26,1,1.06-.52.2,1c1.18-.69,2.31-1.36,3.46-2a2.76,2.76,0,0,1,.71-.2c.26,1.07.8.32,1.11.11,1.51-1,3-2.07,4.46-3.17a9.47,9.47,0,0,0,1.17-1.27l-.25-.29-4.61,3-.11-.18,1.25-1.25c-1.89.43-3.27,2.07-5.34,2a11.65,11.65,0,0,1,1.29-1.33c1.4-1.52,3.58-1.26,5.19-2.33,1.21-.8,2.5-1.5,3.75-2.24l-1.28,1.39.24.29,3.38-2.73L103,156A5.23,5.23,0,0,0,99,159.56l1.42-.36.35.51-1.59.87.08,1.17-1.21-.95-1,2.33.37.21.77-.3c-1.75,4.26-1.81,4.36-3.27,5.21L96,166.69a5.57,5.57,0,0,0-2.23,5.52l3.36-3.16.2.23-1,1.34.66,0c.48,2-.93,3.39-2.06,5.07Zm60-21.41c-1,1.85.58,3.56.19,5.41l-.72-2.92-.45.09.35,2.48-.77-1.43-.48.06c0,1,0,2.1.07,3.39-.47-1.22-.85-2.22-1.28-3.36l-1,1.62c-.13-.63-.2-1.11-.32-1.58s-.26-.85-.4-1.28l-.36.06-.08,1.32-1,1-1-1.2c.21,4.44.41,8.49.63,12.91l-1.46-1.72a2.61,2.61,0,0,0-.36,1.63c.19,1.09.48,2.16.73,3.22l-1.12-2c-.1.08-.22.14-.22.19,0,.29.05.57.08.86-1.13,0-1.25.2-.82,1.75l2.08-.83.28.76.67-1,.4.12a10.68,10.68,0,0,0-.39,2.06,3.1,3.1,0,0,0,.46,1.75c.18.28.86.23,1.39.35-.46-.88-1.13-1.87-1-2,1-.92,0-1.8.1-2.72,2,0,.35-1.53,1-2.37.35,1.53.46,3,1.46,4l.47-.11-.19-2.41,1.12.06,1.08-1.77.73.82,0-.4,3.08-.15-.8-2.72a4.27,4.27,0,0,1,.85,1.22c.24.45.52.89.79,1.33l.65-.54c1.35,2.93,1.35,2.93,2.68,3.44l-3-5.31.31-.17,1.75,2.57.34-.21-1.31-2.78a3,3,0,0,1,.84.82,9,9,0,0,0,.77.74l.26-.17c-.29-.8-.58-1.59-.93-2.57l1.79,1.88.38-.2c-.44-1.11-.89-2.21-1.3-3.24l1.13-.12v-.3l.82.74.65-1.21,1.19,1.77.26-.17c-.35-.88-.71-1.75-1.06-2.63l.13-.08c.63.75,1.27,1.49,1.91,2.24l.28-.23q-1.26-2.19-2.5-4.4l.29-.18,1,2,.67-.4c-.25-.66-.49-1.31-.8-2.15l1.33,1.38.28-.1-.47-2.66c.81,1.29,1.57,2.5,2.32,3.71l.39-.2c.05-1.93-1.72-3.23-2-5.06.37.45.6,1,.95,1.42a3.2,3.2,0,0,0,1,.6,3.06,3.06,0,0,0-.13-1.06c-.41-.78-.93-1.51-1.4-2.26l.23-.14,1.47,2c1.48-.46,0-1.35.29-2,1.1,1.13,2.15,2.21,3.21,3.28l.41-.3-2.74-4.29.12-.07,2,2,.18-.2-.68-1.61.26-.15,2.24,2.38.34-.21-2.52-3.77.53-.36,1.59,2.64.3-.2-1.33-3.15.44-.28a5.58,5.58,0,0,0,.52,1.07,5.19,5.19,0,0,0,.92.75l.19-.19-1.11-2.23.26-.16,2.1,2.47.48-.33-2-3.7,2.17,1.79.26-.32-2.14-3.34c1.48.83,1.71,2.72,3.24,3.42l.44-.31L178.83,146l.47-.34,2.25,3.76.63-.41-1.58-3.25.32-.21c.27.37.78.74.78,1.1,0,1.39,1,1.82,2.05,2.32l-.6-2.57.28-.13,1.8,1.94.21-.13c-.19-.57-.37-1.14-.6-1.83l1.77,1.2.23-.27c-.62-.91-1.21-1.85-1.88-2.72s-1.46-1.73-2.2-2.6l.15-.16,2.9,2.73.39-.4-2.76-3,.39-1.54,1.69,1,.4-1.75a8,8,0,0,1-2.06-.57c-1.6-.92-3.11-2-4.67-3s-3-1.88-4.49-2.84a8.87,8.87,0,0,0-5.21-1.29c-.18,0-.34.41-.51.63.43.31,1,1,1.26.86,1.27-.45,1.21.48,1.38,1.16s-1.33,3.09-2,3.41a2.82,2.82,0,0,0-1.38,2.77h-1.65a8.31,8.31,0,0,0,.26,1.67,7.81,7.81,0,0,0,.83,1.2,9.48,9.48,0,0,1,.5,1l-.31.15c-.32-.46-.62-.95-1-1.39s-.69-.78-1.2-1.34l-.49,2.75-.43-.31-.22.19,1.67,2.75-.64.45-1.06-2.64-.46.37-.25.57-1.3-1.55-1,1.84c-1.12-1.62-2.1-3-3.06-4.42-.26-.36-.44-.79-.72-1.13a6.44,6.44,0,0,0-.86-.78c-.1.43-.39.94-.25,1.28a14.43,14.43,0,0,0,1.25,2.09c-1,.62-.95,1.13.29,2.1l.6-1c1.09,1.84,2.12,3.59,3.16,5.33l-.28.16-2-2.95-.4.23c.07,1.84,2.06,2.9,2.06,4.8L159,147.77l-.79,1.93-1.07-1.87.92,0c-.15-.24-.25-.61-.46-.67a10.78,10.78,0,0,0-1.85-.27l1,2.53a3.13,3.13,0,0,0-1.73,2.36c0,.13.15.28.26.49l1-.72.31.84c-1.09-.26-1.11.52-1.08,1.21C155.58,153.68,156.14,153.78,156.44,153.89ZM87,88.3l.07-.5h1.75l-.49-1L89.8,87l-2.2-1.94c1.61-.84,2.65.66,4.28.54-1.07-.5-1.86-.83-2.62-1.23s-1.45-.82-2.18-1.23l.23-.38L91.59,84l.16-.44a7.27,7.27,0,0,0-2.27-.77c-1.12,0-1.61-.44-1.73-1.43L89,80.57l-1.69-2.65,0-.28,5,2.43.14-.3c-.67-.41-1.35-.8-2-1.25s-1.23-.92-2-1.51l1.13-.31-1.08-1.33,1.49.19-.68-2.51c1.56.5,2.76,1.72,4.48,1.63l-4.82-3,.24-.38,3.32,1.63.16-.37L90,70.45l.22-.29,4.44,2,.3-.49L90.81,69l.22-.34,1.83.79.12-.18-1.17-1.3c2.19.95,2.07.12,1.18-1.32l1.21-.26L93.46,65,94.57,65l-.7-1.44,1.55.2-.1-2.08,2.12.28c-.67-1.56-3.19-2-2.15-4.31l1.36.69.25-.2L96,56.31l1.07.13.77-1.74L96.35,53l.22-.22,1.43,1,.29-.14-.44-1.45,1.06-1.61c.06-1.2.14-2.27.15-3.34a6.26,6.26,0,0,0-1.72-4.73c-.78-.78-2.08-1-2.55-.18a41.89,41.89,0,0,0-2.16,4.35,23.56,23.56,0,0,0-.85,3l.33.13-1,.34c.7,1.32-.84,1.88-.94,3A4.52,4.52,0,0,1,88,56c-1.5.87-1.25,2.26-1.67,3.5a7.26,7.26,0,0,1-1.26,2.34c-.24.27-1,.14-1.55.07-.14,0-.22-.47-.33-.73l1.25-.44c.07,0,.12-.09.23-.18l-.62-1c.72-1.12,1.36-2,1.91-3a15.08,15.08,0,0,0,1-2.13c.71-2,1.38-3.93,2-5.91a1.07,1.07,0,0,0,0-.55l-1.69.44-.51,2.18c-.31.12-.91.16-1,.43-.64,1.34-1.15,2.74-1.75,4.21L85,56c-.46.18-1,.22-1.08.46-.6,1.24-1.1,2.53-1.63,3.81A3,3,0,0,1,82,61a2.51,2.51,0,0,1-.71.37,3.71,3.71,0,0,1-.29-.76c-.07-.61-.09-1.23-.12-1.85a1.57,1.57,0,0,1,0-.27L82.06,58l-1.71-1.27,1.14-1-.58-.9,1.21-.13-.81-1.6c1.11,0,1.12-.08.34-2.23l.93-.15-.78-1.37,1.67.21-.33-1.16c.32-.52.76-.92.74-1.29a15.48,15.48,0,0,0-.53-2.55l1.61.83-.6-1.8.59,0a8.87,8.87,0,0,0,.46-1.92,21.48,21.48,0,0,0-.31-2.46l1.1.27A5.5,5.5,0,0,1,86,34.53c.63-1,.22-1.62-.35-2.31a24.22,24.22,0,0,0-1.77-2,1.16,1.16,0,0,0-.9.14c-.22,1.62-1.54,2.64-2.13,4a6.87,6.87,0,0,1-2.7,3.35,2.5,2.5,0,0,0-.94,1.07c-.83,1.91-1.59,3.85-2.34,5.8a2.74,2.74,0,0,0,0,1A19.2,19.2,0,0,1,75,49.11a10.8,10.8,0,0,0,.41,5.35,7.77,7.77,0,0,1,.16,2.12l-1.8-.67-.26.36-3-2.42-.24.28,0,.37L68,53.94l-.67,1.62.48.79A2.53,2.53,0,0,0,66,59.65l-1.56.66,1.61,1c-1.35,1-1.35,1.18-.16,2.57l-1.12,1.17c.51.3,1,.61,1.54.89.35.19.72.35,1.42.68L66.11,67c0,.8.11,1.46.12,2.11s0,1.41-.07,2.31c-.06,0-.6.28-.71.64-.4,1.38,1.34.77,1.62,1.62l-1.95-.25c-.55,1.67-.09,2.81,1.59,3.2l-3.34-.2-.19.46c1.5-.1,2.05.49,1.43,1.94,2.28-.52,3.32,1.15,4.72,2.1l-4.69-1.55-.31.68a20.72,20.72,0,0,0,5.06,3,8.11,8.11,0,0,1-2.66-.71c-.69-.29-1.32-.73-2-1-.19-.07-.66.22-.78.45s.16.63.38.76a16,16,0,0,0,2,.86,1.53,1.53,0,0,0-.83,2.55c.77,1,.16,1.34-.37,1.81l.5,1-2.09.22L65,90.5l-1.11,1c2,.81-.55,2,.69,3l-1.37,0,1.19,2.48c-.54.59-1.88,1.27.1,1.75.11,0,.13.38.22.57.64,1.37,1.27,2.71,3,3.08.89.2,1.52.74,1,2l-3.57-.66c-.17-1.47-1.27-1.45-2.51-1.32.75,1.24-.61,1.13-.93,1.46.35.64.63,1.18.93,1.69.11.18.33.47.43.44,1.13-.3,1,.67,1.3,1.23.12.25.21.64.41.71,2.21.86,4.43,1.72,6.94,1l-2.57-.83.06-.47c4.75,2.45,9.47,1.27,14.57.28l-2.6-.56,0-.28,2.27-.61-.06-.22-2.81-.6.07-.27,4.36-.24v-.27l-2.31-.3,1.33-.61-.77-.66,2.54.19.09-.48-2.45-.81.06-.23,2.2.07v-.26l-2.44-1.27.1-.21,2.66.48.07-.25-2-1.29,3.16-.13v-.46c-.41-.09-.83-.15-1.23-.27a17.6,17.6,0,0,1-2.39-.79c-.32-.15-.47-.65-.7-1a6.56,6.56,0,0,1,1.06-.26,8.86,8.86,0,0,1,1.21.08L85,93.3c.88-1.25,2.45.48,4.13-.25l-3-1.37.08-.33,2.49,0L87,90l3.23,0,0-.2ZM190,124l.16-.43c1.12-.11,2.52.56,3.14-1.1h1.93v-.22l-5.69-.73,0-.21,5.34-.06V121l-4.21-1.23,4.62-.37.13-.36-2.25-1.15,2.34-.91-.07-.31-2.13-.27V116l5.4-.32,0-.43-5.08-.65,0-.22,8-.39,0-.69-5.87.07v-.26l2.48-.28-1-.88,1.9-1.25-.16-.51-2.21-.12c1.8-1.83,4.19-1.07,6.56-1.67-2.64-1.26-5,.13-7.34-.17l0-.4,8.91-.85v-.31l-7.29-.32c1.88-.54,3.65-1.18,5.49-1.55s3.52-.43,5.29-.63l-.07-.53-10.48,1-.07-.48,6.63-.92-.08-.49-4.12.28v-.12l5-1c-1.57-1.63-3.11-.32-4.48-.87l4-.83-.05-.28h-3.06l6.11-1.82-.13-.46-4.74.6a7.41,7.41,0,0,1,2-.66,5,5,0,0,0,1-.6,5.09,5.09,0,0,0-1.1-.37,8.34,8.34,0,0,0-1.41,0l0-.18,4.19-1c-1.26-1.32-2.57,0-4-.43l4.93-1.43-.11-.43-3.62.46,0-.27,5.36-1.2,0-.16-5,0,0-.27,4.5-1.1-.1-.43-2.31.19,0-.22L212,88.69,212,88.3l-4.88.47,0-.15,3.7-1.47-.1-.43-4.65,1c1.42-1.17,3.72-.46,4.72-2.36l-.13-.46-4.13.91-.07-.31,3.51-1c-.24-.34-.4-.72-.51-.71a45,45,0,0,0-4.8.61c-.65.14-1.19.78-1.9,1.27l1.42.29-2.28,1.56.11.15,1.49-.53.19.3L202,88.84l1.06.47a17.24,17.24,0,0,0-1.94,3.79,7.37,7.37,0,0,1-4.27,5.21c-.08,0-.13.12-.22.22l.43.87-2,0c.25-.85.43-1.55.66-2.23a1.28,1.28,0,0,1,.49-.59,3.05,3.05,0,0,0,1.65-3.77c0-.14.06-.32.12-.47l2.64-5.71-1.91-.41.52-.57c-.57,0-1.36.14-1.38.35-.08.95-.87,1-1.43,1.39-.78.49-1.61.92-2.41,1.38.22,1-2.5,5.55-4,6.54l.46.82-.38-.11c-.4.72-1.23,1.53-1.1,2.14.37,1.76-.89,1.42-1.65,1.64.19.27.59.56.58.84-.06,2-1.89,2-3.24,2.55l.84.66-1.73.52,1.24.51,0,.28-5.14.47,0-.39,2-.37,0-.24-1.67-.21,2.63-2.81c-.76-.57-.55-1.78,1-3.34-.62-.2-1.2-.6-1.57-.46-1.34.53-2.61,1.23-3.9,1.87,0,0,0,.1,0,.13-.33.66-.67,1.32-1,2-.13.26-.36.52-.35.78,0,1.12-.69,1.52-1.62,1.77a3.28,3.28,0,0,0-.8.51l.56.8-.83.47.85.71-.54.85,1.06.37a5,5,0,0,0-1.41.54,1.29,1.29,0,0,0-.44,1,1.47,1.47,0,0,1-1.23,1.87c-.39,0-.77.13-1.16.18s-1,.1-1.53.11a9.72,9.72,0,0,1-1.21-.15c.31.44.48.88.64.87,1.34,0,2.67-.17,4-.27-.66,1.82-2.15,3.3-1.88,5.66l2.6.63v-1l1.86-.33,0-.28-1.05-.45,2-1.34-1.21-.66,1.92-.48-.69-.75,1.5-.58-1.22-.93,2-.17c-1.8-.92-.86-1.81-.64-2.49,1.64-1.1,2.85-.35,4.05.55.21.16.51.25.65.45a8.49,8.49,0,0,1,.56,1.13,6.79,6.79,0,0,1-1.33.58,2.83,2.83,0,0,1-1.05-.16l-.16.32,1,.9-.82.34,1.44.75-.09.27L180.2,114l-.08.43L183,115l-1.07,1.2,1.13.72a5.56,5.56,0,0,0-1.07.16,5.76,5.76,0,0,0-.87.55,5.6,5.6,0,0,0,1,.41,5.31,5.31,0,0,0,1.13,0v.32l-2.9.32v.38l1.24.85L178,120l0,.47,3.73,1a13.18,13.18,0,0,1-3-.19c-.86-.15-1.71-.36-2.56-.55l-.1.63a12,12,0,0,1,2.25.33,2.77,2.77,0,0,1,1.33,1,5.69,5.69,0,0,1,.44,1.76l-3.3,6.75-3.12-1.46c1.71,2.65,6.9,4.76,9.14,3.92l-1.19-.69.07-.11,2.57.58.11-.43-1.35-.73.08-.13,7.38,1.65.07-.33-5.84-1.39.05-.6,3.15-.28-1.48-1,1-.5-1.1-.74c1.75.19,1.75.19,2.1-.54l-1.35-.76,2.8-1.26-.47-.66c.21-.13.44-.39.64-.37.7.08,1.39.27,2.09.39s1.28.17,1.92.25l0-.37ZM74.1,125.36c-.72.39-1,.61-1.41.76-2.33,1-4.66,2-7,3a6.09,6.09,0,0,0-1,.67l.25.43,8.78-3.61a20,20,0,0,1-3.65,2.18c-1.24.59-2.51,1.11-3.77,1.66l.25.53L73.18,128c.7,1.89-.72,2.45-1.94,3.07-1.45.73-2.95,1.36-4.43,2l.17.39,5.86-2.69c.13,1,.76,2-.69,2.34-.91.22-1.84.39-2.76.58l.11.45,1.12-.08.07.27-5.83,2.67.23.51,6-3,.14.28L69.75,136l.12.23,3.3-1.33a4.56,4.56,0,0,1-1.68,1.4c-1.53.71-3.12,1.3-4.65,2a9.34,9.34,0,0,0-1.48,1.06l.28.45A17.54,17.54,0,0,0,73,136c.86,1.65-.19,2.21-1.3,2.75s-2.38,1.2-3.58,1.77a4,4,0,0,1-1,.2l.57.85,6.06-3.36.18.38L70,141l.17.3,3.44-1.79.19.33-3,1.95.1.14,1.34-.27c-1.16,1.31-3.08,1.26-3.85,3.14l4.29-2.22c-1.09,1.84-3.71,1.67-4.69,3.57l.23.32,3-1.6.15.28-2.84,2.44,3.11-1.29.18.42-7.56,3.76.29.55,9.62-5.23.2.32-7,4.14.23.35,22.82-10.67-.19-.44-11.31,5-.19-.4,5.56-2.66-.24-.5-6.71,2.89-.29-.33a11.9,11.9,0,0,1,1.28-1.28c.58-.45,1.7-.72,1.79-1.2.23-1.31,1.07-1.59,2.06-1.93a7.21,7.21,0,0,0,1.29-.73l-.09-.23-3,.58-.16-.52A43.2,43.2,0,0,0,91.65,134c-2.77.4-5.07,2.23-7.86,2.53a14.69,14.69,0,0,1,2.27-1.08c.81-.36,1.59-.78,2.4-1.16s1.38-.61,2.08-.91l-.19-.32-5.18,2.19-.11-.27,1.24-.69A3.24,3.24,0,0,0,86,134l1.5-1.89-1.8-1.71,1.37-.8-2.48-.7v-.4l2.65-1-.62-.5,5.27-2.33-.23-.59-2.84,1.06-.09-.24,3.4-1.87-.12-.32-1.67.18,2.44-1.42-.15-.3-2.93.64-.08-.3,2.34-.94-.59-.88,1.46-.87-.62-.39,1.37-1.27-1.82.07V117l2.25-.87v-.42l-1.91-.43,1.92-1L94,114l-1.13,0c1.33-1.7-1.22-1.28-1.18-2.16l3.41-3a45.47,45.47,0,0,0-5.43.12c-2.87.42-5.7,1.21-8.57,1.61-3.41.46-6.85.67-10.29,1,.14,1.52,0,1.67-1.71,2.12a2.43,2.43,0,0,0-.63.17,3.45,3.45,0,0,0-.54.6c.22.18.45.52.66.51a6.3,6.3,0,0,0,1.53-.36c.53-.17,1-.4,1.57-.6a2.58,2.58,0,0,1-1,.8c-.32.2-.62.44-.93.67l.13.2,2.5-.52,0,.22-3,1.86.15.3c.81-.19,1.79-.77,2.38-.49,1.23.56,2.08-.11,3.08-.38.35-.09.71-.16,1.07-.24l.1.28L73.72,118l.12.32c.58-.15,1.16-.28,1.73-.45,1-.27,1.16.23,1.14,1.07l-7.52,3.25.25.57,6.33-2.58a5.05,5.05,0,0,1-1.57,2.06,15.69,15.69,0,0,1-2.47,1.3c-.73.35-1.49.65-2.24,1l.17.35,4.85-1.8.12.27-2.28,1.34Zm34.82-34-.26.65,5.47,2.2-.09.25-3.52-.87-.06.2,2.29.91a3.42,3.42,0,0,1-1.7-.23c-2.15-.69-4.28-1.46-6.47-2a6.1,6.1,0,0,0-2.23.28l0,.53,1.87.5,0,.24-1.63.23c1.38,1.84.56,2.85-1.16,3.6l.7.59L99.59,101l1.12.7L99.17,103l.89.79-.54.4,0,.45,5,1.11c-1.66-.11-3.42.88-5-.58-1.38,2.59-4.07,2.3-6.5,2.61l.13.48,4.44-.53,0,.2-2.2.72c.37.13.46.19.54.18,3.26-.32,6.52-.64,9.78-1,.22,0,.39-.47.58-.73l-.21-.36-7.22,1,0-.4,8.87-1-.5.88c1-.35,2-.7,2.9-1a11.19,11.19,0,0,1,6.89.06c.91.31,1.86.52,2.8.77l.11-.31-2-1a27.36,27.36,0,0,0,3.7-.37,22.83,22.83,0,0,0,3.07-1.22l-.48-.3,1.85-1.49,1.82.75-1.18-1.61,1.42.36-1.24-2.21,1.66.21c-1.3-.87-2-1.6-1.08-2.78a1.16,1.16,0,0,0,0-.9c-.69-2.12-1-4.44-3-5.9-.07,0-.08-.18-.11-.27,1.46,1.43,3.64,2.29,3.54,4.87.57-2.57.69-2.71,2.12-2.52-.17-1.73-.27-3.46-.55-5.17a27.8,27.8,0,0,0-1-3.54,10.54,10.54,0,0,0-.5-.94,9.74,9.74,0,0,1-.32-1.08c2.51,2.47,3.63,5.64,5.87,7.93l.36-.27-6.48-9.32-.32,0c.39,1.32-.28,1.53-1.25,1.48l.47-1.42-.26-.26c-.85.74-2.15,0-2.94,1.24-.34.52-1.19.7-1.86,1.06l.44.93-.29.34-2.84-1.81-.26.34,2.32,2.47-.15.14-1.1-.6L121,86.15c-2-1.28-3.32-3.23-5.24-4.48l-.27.31,2.65,2.6-.13.18-3.21-1.88-.23.35,3.93,2.91c-2,1.12-3.44-.79-5.2-1.06l-.19.38,4.23,3.61c-2.41,0-3.39-.48-4-1.67l1.07,0,.14-.36c-.74-.37-1.47-.77-2.24-1.08,0,0-.36.69-.58,1.11l-1.84-1.79.61,2.37-2.37-1.39-.22.33c1.32.83,1.22,3.52,3.88,2.66.28-.09.67.18,1,.29l1.5.5a5.73,5.73,0,0,0-1-.92,11.06,11.06,0,0,1-.85-1c4.93,2.58,4.93,2.58,5.16,4.21L114.06,91l-.15.33L117.37,93a1.1,1.1,0,0,1-1,0c-1.87-.81-3.76-1.56-5.59-2.47a9.15,9.15,0,0,1-1.8-1.58l-1-.9-.28.28,1.11,2.26,4.43,2.07-.11.26Zm31.61,32-1.1-.91-.19,1.52c-1.25-.75-.63.58-.93.8l-1.33-1.2.55,3.42c1.86-.41.83,1.64,1.79,2,.25-2.75.56-3.22,1.91-2.58-1.27-2,1.29-1.91,1.48-3.12,1.91-.16,2-1.85,2.6-3.12.93-2.15.88-2.17,3.26-2.17a2.78,2.78,0,0,1,.39,0c.71.15,1.41.32,2.11.48l-.24.63-2-.89a5.26,5.26,0,0,0,.4.65,16.73,16.73,0,0,0,9.61,5.52c1,.2,1.41-.34,1.42-.94l2.71-1.11-.77-.83h2.25c-.11-1.84-1.68-1-2.77-1.87l2.9-.22L163,117.6l2.74-.46-1-1.89,3.26-1.37-.85-1.27,1-.11.24-.32-1.53-1.24,1.66.22-.72-1.13,2,.26-1.9-1.88,1.68-2.13-.3-.23,1,0-.84-1.55,1.18.26-.23-2.62,1.8.4,0-.25L170.66,101l.2-.29,1.94.51c-1.46-2.63-1.46-2.63-3.88-1.53l-1.57.73-2.74,1.3.12.29,3.05-.76.14.36-4.48,2.68-.17-.28,2.16-1.27-.16-.35c-1.12.35-2.26.67-3.35,1.1-.19.07-.19.63-.28,1l.35.13-1.75,1,.1.24,3.5-.73c-2.1,1.5-4.87,1.19-7,2.62l.1.35,1.37.29-2.47,1,.08.33,3.5-.47.06.33c-2.13.53-4.25,1.09-6.39,1.55-.84.18-1.33-.32-1.45-1.19l1.69.38c-1.07-1.52-3-2.1-4.14-1.35a13.11,13.11,0,0,0-1.58,1.53l.92,1.49-2.29.46-.91-.45.56,2-1.58-.28,1,2.26-1.82-.39,1.18,2.15-1.2.45.27,1.55-1.64-1.86-.21.13.63,2.37-1.12-.07ZM47.05,192.81l-.17-.17c-.33.47-.7.91-1,1.4a35.35,35.35,0,0,1-2.61,4.15c-4,4.73-8,9.43-12.11,14-2.31,2.57-4.84,5-7.39,7.31-5.9,5.42-11.11,11.31-13.71,19.09-.53,1.61.1,2.67,1.73,2.4a6.59,6.59,0,0,0,3.29-1.5c3-2.88,6-5.81,8.68-8.95,2.49-2.88,4.61-6.08,6.91-9.12,4.6-6.09,9.17-12.21,14.5-17.68,2.8-2.87,5.07-6.35,8.92-8.08.38-.17.61-.65.91-1l-.31-.45c-.77.4-1.58.73-2.3,1.2A33.14,33.14,0,0,0,46,201.52c-3.41,3.84-7.05,7.48-10.46,11.32s-6.66,7.85-10,11.77c-1.54,1.8-3.15,3.54-4.73,5.31l.31.29,7.18-7.71c-2.3,3.74-11.81,13.43-14.39,14.57,0-.22-.22-.5-.14-.61,3-3.9,6-7.78,9-11.64l-.4-.19c2.43-2.92,4.76-5.82,7.19-8.63,3-3.42,6.05-6.74,9-10.15,2.67-3,5.9-5.7,7.21-9.76a4,4,0,0,1,.5-.71l-.1,1.4.42.05ZM68,42.74c1.21-1.36,2,.7,2.62.48L68.7,40.78l.45-.36.95.23-.64-1.4,1.19.08-.24-.85,1-.82,1.69,1.22.22-.29-2.07-2,.26-.36,1.36.17-1-1.64c1.78.49.87-1,1.41-1.49l1.16.64c.21-.84-2.47-2.17.54-2.22l-1.2-2.13,1.45.9c-.17-.85-1-1.79-.84-2,.61-.9,0-1.5-.23-2.17a5.27,5.27,0,0,0-5.36-3.88c.37.5,1.23,1.23,1.09,1.56a41.58,41.58,0,0,1-2.29,4.32l-.27-.12.22-1.75a.81.81,0,0,0-.51.46,33.09,33.09,0,0,0-2.23,5.49,9,9,0,0,1-1.11,2.84c-.12.19,0,.56.09.84.17.94.55,1.83-.16,2.79a3.2,3.2,0,0,0-.4,3,3,3,0,0,1-.51,3.33,3.78,3.78,0,0,0-.52,1l1.26.36a6.92,6.92,0,0,0-.78,1.16c-.13.29-.21.9-.1,1a1.75,1.75,0,0,0,1.16.16c.27-.07.44-.49.8-.93l7,3.7.09-.12L66.21,46.5l.18-.26L70.2,48.5l.32-.5c-.65-.44-1.31-.87-1.94-1.32a9.72,9.72,0,0,1-.76-.68l1-.85L67.46,44l.25-.21,1.42.58Zm24,144.86L90.12,187l-.23-.51,4-2.67-.26-.34L89,186.72l-.17-.24L92,184l-.24-.27-5.81,3c-.39-1.94,1.38-2,2.14-2.89l-1-.12a15,15,0,0,0,1.43-1c.5-.42,1.25-.82,1.37-1.35.46-2.07,1.84-3.37,3.37-4.61a15.3,15.3,0,0,0,1.42-1.48l-.23-.17-2.5,1.19.78-1.45a1.62,1.62,0,0,0-1.32.48,13.33,13.33,0,0,1-5.22,4.56c-3.45,1.48-6.77,3.27-10.18,4.85-.63.29-1.38,1.08-2.17.14,0-.06-.42.09-.57.22a27,27,0,0,0-2.14,2.14,5.61,5.61,0,0,0-.65,1.47l.32.14,1.56-1.15.16,1.53h.43l.32-2.46.56,1.41c.94-.06,1.48-1.86,2.72-.24l1.23-1.27,0,.12-.93,1.34,1.33.17,1.11.14c-.39,1,.39.81,1,.75l0,1,1-.35-.19,1,.35.35,1-1.4V192l.36-.26c.29.3.76.56.82.9.22,1.17.3,2.38.44,3.66,8.49-6.33,12-9.82,12.39-12.29l-2.6,3.1-1.51-.52,2-2.24C91.37,185.93,90.87,186.51,91.93,187.6Zm124.92-99c1.48,1,.91,1.87.25,2.73l1.12.25L217,94.38l.27.11-1.6.79c3,2,4.18-.06,5.57-1.58l-.3-1.07,1.47.19-.32-1.19,1.21.32.75-1.52.32-2.57,1.55,0-.93-1a15.69,15.69,0,0,1,1.41-3.62,8,8,0,0,0,1.52-4.57A3.79,3.79,0,0,1,229.08,76c1.45-1.48,1.6-3.43,2-5.66-3.57,1.46-7.49,1.32-9.81,4.68l.55.79-1.5.2,1.28,1.73L220,77.06l-.15.26,1,.85-.24.28-.72,0-.63,4.92.45.41a4.52,4.52,0,0,0-1.23,4ZM133.19,199.37l1.8,1.32.19-.22-.59-1,.85-.73-1.32-1.42.06,1.49c-1.2-1.07.36-2.84-1.28-3.76l-.34,2.68c-2.49-.61-.65-2.26-.82-3.46-1,.73-1.8.82-2.44-.31-.17-.29-.82-.31-1.24-.46l-.25.36-.08-1.06-2.72-.65-.13-1.1-.65.78,0-1.55-.3-.06-.95,1.92-.85-.81-.77.88a1.16,1.16,0,0,1,.16-.81c.74-1.22.88-2.32-.25-3.45-.28-.28-.23-1-.11-1.51a7.65,7.65,0,0,1,.82-1.61l.16.31a3.3,3.3,0,0,0,1.18-.26c1.19-.84.49-1.74,0-2.67.49.35.82.79,1.22,1.13a2.24,2.24,0,0,0,.85.27c0-.32.26-.74.12-1a3.23,3.23,0,0,0-1.27-1.34c-.44-.17-1.08.17-1.8.32.8-.82,1.69-1.62,1.46-3.22l-1.15,1.72-.28-.16c.58-1.22.57-2.68,2-3.55.74-.45,1-1.33.56-2.57a28.85,28.85,0,0,0-2,2.54c-.49.78-.76,1.69-1.18,2.53-1.78,3.54-2.78,7.18-1.51,11.14a5.18,5.18,0,0,1,.18,1.84c-.15,2.13-.4,4.25-.53,6.38-.08,1.18,0,2.38,0,3.57l.33,0,1.53-6h.52l.49,3,.68-.83,1.27,1.94.46-.15-.45-2.25,1.64,1.75c-.13,1.14.24,1.51,1.95,1.53.64,0,1.26,0,1.46.89.06.31.86.68,1.31.66A2.43,2.43,0,0,0,133.19,199.37ZM112,59.89c.29.59.88,1.3.73,1.56-.9,1.49-.21,3-.21,4.45l-1.5.77,1,1.49-1.61.9.31.78-2.56,1.88.46.78-1.61.72-.18,2.69-2-1L106,76.55l-1.22.27,1.41,1.12-.19.17-1-.58-.1.5c-.8.49-1.33-.6-2.35-.61l2.2,3.79-2.25-.74-.19.4c.74.51,1.47,1.06,2.24,1.52s1.71.76.91,2c-.07.11.11.51.27.63.49.38,1,.7,1.56,1,.52-2.75.52-2.75,1.68-2.18a6.4,6.4,0,0,1,1.19-6.59c1.09-1.37,2-2.85,3.1-4.24.86-1.12,1.78-2.19,2.7-3.26.08-.09.43,0,.76.08C116.41,65.82,116.14,62,112,59.89ZM236.12,75.62l0,.47a22.64,22.64,0,0,0,9.52-.12c1.7-.46,2.39-1.73,2.65-3.42.19-1.16-.5-1.59-1.05-2.31,1.08-1,2.08,0,3.06-.06s2-.08,2.95-.12l0-.38c-1.32-.17-2.65-.29-4-.52a2.74,2.74,0,0,1-1.62-.69c-.21-.28.2-1,.37-1.72l-3.15.11.22-.71a4.83,4.83,0,0,0-2.44.22l1.34.74-3.95.59.8,2.21a7.69,7.69,0,0,0-3.66,5.67ZM139.54,196.8a6.83,6.83,0,0,1,2.31-1.9l.58,1.63.86-1.41.53,1,.94-.93c.31.33.54.6.8.85.62.58,2.41.76,2.85.09a4.62,4.62,0,0,0,.48-2.3,4.46,4.46,0,0,0-.43-1.76c-.56-1.39-1.15-2.76-1.8-4.11a23.65,23.65,0,0,0-1.32-2.17,1.51,1.51,0,0,1-.21.4c-.24.3-.51.58-.77.86-.21-.32-.43-.64-.62-1s-.27-.55-.56-1.14l-.35,1.76-1.47.72-.44-1.93-.42,0-.42,3.27-.31-.19c-.23.29-.48.56-.7.87a9.63,9.63,0,0,0-.63,1,3.73,3.73,0,0,0-.43.93A5.24,5.24,0,0,0,139.54,196.8Zm-83.92-50a2.51,2.51,0,0,1,.28-.52c1.78-1.64,1.8-2.26.13-3.93-.11-.11-.12-.32-.18-.48-1-2.53-3-3.17-5-1.37a19.49,19.49,0,0,0-2.32,3.16.86.86,0,0,0-.11.64c.64,1.77.62,3.8,2.7,4.91,1.09.59,1.82,1.85,2.7,2.82.33.36.64,1.09.92,1.07a9.65,9.65,0,0,0,2.2-.69l-.06-.47L55.09,151c2.56-1.53,2.56-1.53,1.76-2.32l1.74-1.19ZM203.38,128a10.87,10.87,0,0,1-1.92,1.45c-1.24.59-2.18,2.27-4,1.24-.26-.15-.67,0-1.29,0l2,1.17L196,133l2,.4.28.49c-.5.24-1,.51-1.52.71s-1,.33-1.33.43c1.26,2.46,3.26,2.22,5.49,1.31l-.56-.78c2.4.76,3.12-1.4,4.74-2.51l-1.13.08.77-1.36-3-.72.08-.45,2.78.07c3.1-.84,5-2.9,6.61-5.24-1.59-1.42-7.7-2.5-9.49-1.49l5.19.4,0,.27-3.39.27-.07.42,2.55,1-3.18,1.46Zm30.24-35a9.43,9.43,0,0,0-4.78.25c-3.29.88-4.8,2.26-4.83,5.59,0,.28.25.79.43.81,1.87.18,3.72.94,5.63.14s3.63-1.44,5.43-2.21a2.87,2.87,0,0,0,1.69-3.35c-.25-1.25-1.41-.81-2.18-1A8,8,0,0,0,233.62,92.94Zm3-1,0-.32a8.32,8.32,0,0,0,1.34-.21,2.85,2.85,0,0,0,1-.63,8.31,8.31,0,0,0,.77-1.13c.66-.94,1.34-1.86,2-2.82s.24-1.4-.72-1.43c-2.06,0-4.13,0-6.2,0-2.36,0-3.57,1.34-4.43,3.32s-.36,3,1.69,3.44c1.52.3,3.05.58,4.59.79a7.66,7.66,0,0,0,1.71-.12v-.23ZM47.89,41.23a13.61,13.61,0,0,1,.61,8.21c-.13.73.28,1.1,1,1.23,1.4.26,2.8.54,4.16.93,1.88.55,2.5.2,2.77-1.74.24-1.72-.57-3.26-.86-4.88a2.9,2.9,0,0,0-2.32-2.65C51.6,41.94,49.91,41.64,47.89,41.23Zm182.59,60.91c-.4-.48-.67-1.15-1-1.19a52.94,52.94,0,0,0-6.87-.6,4.31,4.31,0,0,0-2.33,1.37c-.24.21.13,1,0,1.48a2.37,2.37,0,0,1-.74,1.16c-.66.57-1.48,1-2.09,1.58s-.5,1.32.5,1.53a25.39,25.39,0,0,0,3.66.6,5.39,5.39,0,0,0,4.43-1.7C227.43,104.9,229,103.57,230.48,102.14Zm-176.74,73c.07.06.28.23.46.41s.42.54.44.53a13,13,0,0,0,2.18-1.63c.21-.23,0-.91-.1-1.38s-.3-.84-.2-1.2a14.88,14.88,0,0,1,1-2.74c.84-1.74.7-2.39-.53-3.92a10.22,10.22,0,0,1-1.39-2.76c-.26-.67-1.34-1.33-1.88-.83a7.59,7.59,0,0,0-1.54,2.23c-.35.7-.38,1.57-.72,2.28-1.08,2.22-1,3.4.65,4.53l-.27,1.09,1-.62-.4,1.39,1.45-1ZM48.84,51.58c.09,2.68.36,5.31.19,7.92-.08,1.3.52,1.64,1.37,2s1.67.53,2.5.79l.19-.48-2.28-1.37a4.26,4.26,0,0,1,2.12.68c1.06.67,1.62.22,2.08-.73A8.52,8.52,0,0,0,55.32,54a1.28,1.28,0,0,0-.63-.78C52.72,52.65,50.72,52.11,48.84,51.58Zm6.83,16c.26-2.46-.62-3.64-2.78-4.36-1.29-.43-2.79-.47-3.72-1.72-.1-.13-.54,0-.82,0,0,.27,0,.56.06.83s.14.59.16.89c.1,1.34.17,2.68.27,4,0,.44.15.88.23,1.31l-.29.1.8.86c-.84.69-1,1.81-.23,2.13a21.18,21.18,0,0,0,4.14,1c.17,0,.5-.46.66-.76a6.76,6.76,0,0,0,1-5c0-.07.06-.18.15-.45ZM234.91,83.34c1,.27,1.94.53,2.86.76s2,.44,3,.72a2.12,2.12,0,0,0,2.71-1.25c.58-1.09,1.24-2.13,1.83-3.21.34-.63.62-1.29.92-1.93a16.51,16.51,0,0,0-1.91-.76,2.93,2.93,0,0,0-1.17.08c-1.35.25-2.7.53-4,.8A4.94,4.94,0,0,0,234.91,83.34ZM56.38,135.46a21.78,21.78,0,0,1-.43-3.73,3.93,3.93,0,0,0-1-3,5.94,5.94,0,0,0-4.55-1.8A2.84,2.84,0,0,0,47.62,129a2.46,2.46,0,0,0,1,2.8c1.21,1.07,2.33,2.26,3.5,3.37.47.45,1,.86,1.51,1.27.08.05.25,0,.44,0l.17-.93,1.06.25-.38-1.81ZM43.58,26.86l-.06.24,1.92,1.09-.19.39L43,28.12,44.8,30.6c.37,0,1,0,1.58,0,1.76.19,3.51.45,5.27.61a2.1,2.1,0,0,0,1.19-.38c.12-.07.08-.56,0-.8a12.86,12.86,0,0,1-.58-1.89c-.32-1.48-1.47-2.77-2.31-4.12-.09-.15-.39-.2-.6-.24a32.84,32.84,0,0,0-3.42-.53,1.82,1.82,0,0,0-1.33.57,10.18,10.18,0,0,0-1.1,1.95l1.78.92-.1.19Zm3.07,4.77c.48,2.47.94,4.93,1.47,7.37a1.62,1.62,0,0,0,.78,1.07c1.16.43,2.37.72,3.56,1,.83.22,1.16-.16,1.13-1,0-.57-.3-1.4,0-1.67,1.18-1.15.46-2.11,0-3.2a20,20,0,0,1-.71-2.87ZM215.58,117.3c-.55-.2-1-.39-1.45-.52-1.4-.42-2.79-.84-4.21-1.2-.17,0-.51.2-.63.4-.67,1.07-1.52,2.12-.43,3.49L207,120l0,.23,1.95.38c-.93,1.61-3,.81-4,2.21a21.83,21.83,0,0,0,5,.8c1.74,0,3.36-.53,4.09-2.36.47-1.19,2.3-1.94,1.23-3.66C215.32,117.58,215.49,117.41,215.58,117.3Zm-4.4-2.88,0,.2c1.26.39,2.53.77,3.79,1.17,2.11.67,3.4.06,4.55-1.82a32.54,32.54,0,0,1,2.73-3.38c.31-.38.58-.79,1.08-1.48l-6.52-.83c-1.25-.16-1.65.52-1.54,1.6l-1.41.7,1.61.4c-.1.41-.13,1-.28,1-1.14.27-2.32.42-3.48.62a5.33,5.33,0,0,0,1.86.38,6.9,6.9,0,0,1,1.08.29c-.32.28-.6.72-1,.81A20.51,20.51,0,0,1,211.18,114.42ZM50.6,22.75c-.57-1-1-1.91-1.54-2.78a4,4,0,0,1-.81-3.17,2.44,2.44,0,0,0-.84-2.62,1.72,1.72,0,0,1-.71-1.07c-.06-1.32-.8-1.26-1.73-1-.44.12-.9.18-1.56.31l1.23.77-2.23.33c.22.38.3.68.45.73,1.67.5,1.64,1.83,1.69,3.21a14.55,14.55,0,0,0,.51,2.46,6,6,0,0,0-.5,1.38,1,1,0,0,0,.6.74C46.87,22.3,48.59,22.49,50.6,22.75ZM49.52,93.34c-.13.46-.47,1-.32,1.27a1.83,1.83,0,0,0,1.24.53c1.28.15,3.38-2,3.37-3.37A7.27,7.27,0,0,0,53.89,90c-.21-.82-.7-1.57-1-2.38a3.22,3.22,0,0,0-4.35-2.33c-.21.07-.49.31-.5.5a.82.82,0,0,0,.35.63,16.63,16.63,0,0,0,1.63.77H48.2l-.13.32,1.06.82-.91.73,1.37,1.66-1.07.1-.08.29L49.7,92l-1.08.51Zm7.79-75.9c.95.26,1.54.17,1.07-.93a1.06,1.06,0,0,1,0-.5,2.57,2.57,0,0,0-2.07-2.66c-1.09-.31-2-.34-2.18,1.16,0,.29-.32.54-.4.83-.22.79-.4,1.59-.62,2.51l1.17-.8L52.8,21.11l.32.16,1.78-1.79-1.4,3.45,2.34-1.31.22.29.07-1.31c2.46-.38-.22-1.59.47-2.31C56.89,18.14,58,18.77,57.31,17.44Zm9.27,180.11L66.4,199c1.59-1.56,4-2.11,3-5l-1.55.69L69,193.22l-.2-.18-1.71,1.1L67,194l1.51-1.53-.41-.46-2.7,1.89,1.2-1.76-.34-.34a12.93,12.93,0,0,0-4.22,3.32c-.15.16-.08.52-.11.74l2-.91-1,1.78.3.22,1.6-1.06-1.19,1.67.2.2,1-.34.3,1.17ZM56.19,120.19a2,2,0,0,0-.92,2.68c.23.54.91.9,1.38,1.34.36-.47.91-.9,1-1.43s1.33-1.19.25-2.14c-.35-.31-.11-1.3-.15-2.12l-1.78.57.91-.92c-1.19-1.8-1.55-1.8-3.5-.06C54.38,118.77,54.42,120.54,56.19,120.19Zm17.18,77.52.22.44c.23.09.54.12.68.29a1.84,1.84,0,0,0,2.24.4c1-.77,1.93-1.56,2.86-2.38a3.39,3.39,0,0,0,.48-.76l-.28-.27L78,196.51,79,195l-1.6.9-.07-.12.92-1-.29-.36Zm6.15-46.87c-3.69.61-12.45,5.33-13.86,7.48Zm99.66-16.37a10.08,10.08,0,0,0,9.5,1.67l.07-.45Zm-32.41,48.06h-.51c0,1.16-.16,2.32-.1,3.47,0,.42.48.81.73,1.21.46-.39,1.18-.7,1.33-1.19a14.29,14.29,0,0,0,.5-3.28c0-.29-.36-.61-.56-.92l-.45.18c-.08,1.2-.16,2.39-.23,3.59l-.33,0Zm38.46-84.21.2-.53c-1-.61-1.7-1.93-3.13-1.49-1.84.58-3.61,1.38-5.41,2.1-.13,0-.21.23-.37.41,1.84.48,3.24-.44,4.62-1.14,1.12-.56,2-.71,2.94.23A3.09,3.09,0,0,0,185.23,98.32Zm26.38-18.18c-1.85-.48-6.57,1.2-6.61,2.12,1.5-.14,3-.26,4.54-.43A2.19,2.19,0,0,0,211.61,80.14ZM65.24,159.43l.33.59,10.87-6.43-.3-.51Zm38.9-69.15c.38,1.68,1.23,2,2.53,1.64a6.24,6.24,0,0,1,1.62,0c-.28-.57-.54-1.14-.83-1.7a3.65,3.65,0,0,0-.55-.74c-.3-.33-.64-.62-1-.92l-.21.22L106.1,90Zm-36,65.08-.38-.54c-3.22,1.71-6.66,3.13-8.79,6.39,1.05-.71,2-1.64,3-2.31C64,157.64,66.1,156.53,68.15,155.36Zm22-113-2.67-2.85,1.4-.38-.14-.4c-.44.23-1.2.42-1.24.7A5.39,5.39,0,0,0,88,41.28l-.38.59A18.66,18.66,0,0,1,89.52,43,15.37,15.37,0,0,1,91,44.39a4,4,0,0,1,.41-1.48c.73-.87.77-.9-.28-1.71ZM53.85,104.05c-.81-1.06-1.69-1.46-2.89-.51,2.06,2.71,5,3.38,8.16,3.84a2.53,2.53,0,0,0-1.15-.71c-1.47-.51-2.95-1-4.41-1.5-.25-.1-.41-.46-.62-.7ZM139,157.75l-.24-.07c-.14.16-.34.3-.39.48-.47,2-1,4-1.34,6-.08.44.31,1,.48,1.44l.5-.08Zm-16.57-19.44-.42-.46-7.48,7.2.53.54Zm-62,56.45.31.35,3.67-2.58-.3-.57-2.24,1,.47-1.19a1.49,1.49,0,0,0-2.06.95c-.12.25.2.71.32,1.08l.27-.06Zm87.78-41.68-.2.45a3.82,3.82,0,0,0,2.65,1.69c.66.09,2.28.31,1.63,1.95-.05.14.24.41.38.61l.45-.14c-.17-1.24-.34-2.47-.53-3.89-1,.78-1.53,1.28-2.36.25C149.85,153.49,148.94,153.37,148.25,153.08Zm-66.78,28a12.58,12.58,0,0,0,5.16-3.5l-.2-.28-2.34,1.57-.36-.7c-1,.63-2,1.25-3,1.91-.07,0,.06.36.12.66l1.46-.69Zm-5,13.66-.21-.3c-1.18.33-2.09,1.23-3.46,1.33s-1.31.82-1.26,3.09ZM185.56,92c-.45-.23-.91-.65-1.13-.55-1.44.69-2.84,1.48-4.29,2.27A10.58,10.58,0,0,0,182,94.76c1.2.38.57-1,1.1-1.27l.23-.14Zm-30.66,15.2.15-.25c-.53-.41-1-1.08-1.6-1.18a16.35,16.35,0,0,0-3.2,0c.1.19.2.66.43.74a4.08,4.08,0,0,1,2.14,1.76c.26.37,1,.44,1.72.76l-1.34-2.17ZM252.82,88.7l.11.3-5.48,1.08a20.94,20.94,0,0,0,5.07-.12,1.79,1.79,0,0,0,1.6-2.16l-4.47,1,.08.4Zm-188,32.71c2.65-.23,4.9-1.52,7.17-2.72A12.68,12.68,0,0,0,64.85,121.41Zm79.41-16c-.35-.53-.52-1.13-.87-1.26a2.14,2.14,0,0,0-1.72,0c-.3.25-.12,1.1-.16,1.71l-1-.24,1,1.9.54.45c-.46-1.92.56-1,1-1.19l.09-1.21ZM47.35,170.65c-1.87,1.25-.65,4.38,1.64,6.61.21-1.87-.7-3.87-2-4.19Zm100.34.51-1.78-1.82a5.52,5.52,0,0,0-.41,4.73c1.23-.55.33-1.77.76-2.54Zm-32.93-22.69-.34-.3c-1.27,1.49-2.57,3-3.8,4.49-.15.18,0,.61,0,.93.29-.06.74,0,.86-.19C112.64,151.78,113.69,150.12,114.76,148.47ZM223,120.66a10.06,10.06,0,0,0,3.84-4l-.51-.61c-1.1,1-2.22,2-3.25,3.1C222.89,119.42,223.05,120,223,120.66ZM50.16,187.34l.38-.39c-1-1.78.6-3.89-.93-5.94-.12,2-.25,3.76-.26,5.48C49.34,186.77,49.88,187.06,50.16,187.34ZM146.82,154c-.13-1.09-.63-1.82-1.81-1.82-.67,0-1.35.33-1.08,1.09a2.13,2.13,0,0,0,1.34.95A3.91,3.91,0,0,0,146.82,154Zm91.82-48-.25-.35-4.3,2.39.28.49C236.55,109,237.17,106.76,238.64,106ZM127.37,154.16c-.31-1.11-.63-2-.81-3a15.76,15.76,0,0,1-.11-2.18l-.38.06C125.36,151.46,125.77,153.38,127.37,154.16Zm13.43,26.19a6.93,6.93,0,0,0,2-.58c.28-.19.37-.91.29-1.34s-.52-.54-.8-.8l.59.89-2.08,1.17c-.33-.24-.28,0-.2.28A2,2,0,0,0,140.8,180.35ZM66,147.15c-1.5,0-5.93,3-6.3,4.22Zm123.05-17.94-.05.34,5.82.75.07-.35ZM74,148.73l-.29-.53-6,3.3.27.52Zm61.68,34.05.39,0q.54-2.56,1.07-5.13l-.52-.11C135.47,179.15,135.52,181,135.63,182.78ZM61.81,34.93l-1.38.77,1.89,1,1-2.5-2.46-.31ZM75.4,119l-.23-.53L68,121.56l.18.43ZM245.53,94.77c1.94.67,3.78.27,4.3-.86C248.37,93.82,247,93.64,245.53,94.77ZM139.78,140.33l-1,5,.25.26c.27-.29.71-.53.79-.87C140.54,142.05,140.48,140.65,139.78,140.33Zm-74.47-112c-.92,1.15-.71,2.94-2.4,3.41,0,0,0,.63,0,.65a1.25,1.25,0,0,0,.89,0C64.84,31.85,65.58,29.81,65.31,28.35Zm94.88,103.32-1.82,2,2.13,1.74-.76-3,1.61.8.14-.23Zm-54.76,26.79-.43-.32a6.1,6.1,0,0,0-2.76,3.69l.38.29Zm69.3-38.65,0-.47c-3.54-1.1-3.54-1.1-4.56-.11ZM255,77.28c1.64,1.29,3.13.49,4.55.46.14,0,.27-.38.6-.87ZM91.81,174.45l-.45-.44-4.28,4.45.34.34Zm-33.7-25.77c.65.62,3.32-.76,4.65-2.62Zm87.55,6.72-1.36-.35c.11,2,1.95,1,2.49,1.89l.36-.24-.89-2.1-.45.12ZM30.76,217l-.43-.38L26.4,220.9l.43.39Zm108.84-58.1a12,12,0,0,1,.59,1.54,9,9,0,0,1,.06,1.38l.41,0a15.27,15.27,0,0,0,.42-1.87,6.12,6.12,0,0,0-.16-1.39Zm-58,7c-1.83-.19-3,1.06-2.64,2.42C79.93,167.5,80.78,166.71,81.64,165.92Zm85.48-43.67,1.65,2.17,1.23-.25-1.17-1.86a4.16,4.16,0,0,1-.9.16A3.34,3.34,0,0,1,167.12,122.25Zm41.78-19.43c-.86-1.25-2.54-1.15-4,.07ZM79.33,177.71c.78-.35,1.44-.59,2-.93.76-.44.77-.73.37-1.41a9.35,9.35,0,0,1-1.46.76C79.48,176.37,79.09,176.78,79.33,177.71ZM57.9,196l.05-.27-1.8-1.4-1.47,1.25Zm9-84.25c.52-.45.16-.9-.51-1.15-1.21-.46-2.46-.82-3.69-1.23l-.13.3ZM129.58,228.9l.54,0,.06-5.09h-.53C129.63,225.49,129.6,227.19,129.58,228.9Zm37.35-93.7-2.27-1.81c-.68.67-.68.67.5,1.73C166.08,136,166.36,136,166.93,135.2Zm87.84-49.94-.06-.41-4.55.31.05.5C251.79,86.23,253.25,85.45,254.77,85.26ZM157,144.19c-.52.47-1,.9-1.49,1.36a.48.48,0,0,0,0,.46.78.78,0,0,0,.5.25c.36,0,.73,0,1.44-.07C158.2,145.62,157.75,144.92,157,144.19Zm-11,33.12.31.1c.48-.48,1.27-.89,1.39-1.44.3-1.49-1.13-.07-1.63-.71Zm-16.37-32c-.52-1.49-1.06-3-3.23-3.16ZM81.73,164l-.26-.53c-.79.37-1.6.7-2.36,1.12-.18.1-.21.47-.31.72.27,0,.61.21.79.1C80.33,165,81,164.52,81.73,164ZM53.09,100.4l.32-4C52.13,98,52,100,53.09,100.4Zm53.81,52.95.44.39,2.76-3.14-.42-.36ZM67.12,123.58l-.27-.53L63.27,125l.26.5Zm30.43-23.49,2.91-1.19C98.63,98.05,97.55,98.6,97.55,100.09ZM65.68,125l.19.48,3.88-1.62-.27-.62Zm107-4,.09-.51-2.61-.33-.19.31,1,1.43.33-.17,0-.81ZM165,137.35c-1.17,1.26.79,1.53.6,2.47C166.89,139,166.89,139,165,137.35ZM67.84,140l-.25-.4-3.91,1.62.27.6ZM184,155.1l2-2.52-.32-.3-2.46,2ZM254.8,83.81l.07.47c.76-.15,1.53-.28,2.28-.47.09,0,.17-.53.12-.56-.47-.24-1-.43-1.71-.74L256,83.6ZM186.48,151l.41-.45-2.21-2.2-.52.55Zm-109.34,22c-2.81,1.14-2.81,1.14-2.75,1.87C77.05,173.57,77.05,173.57,77.14,172.94ZM209.6,101l0-.64-4.05.42,0,.35Zm-61.37,49.82-.42.39a15.47,15.47,0,0,0,1.33,1.46c.14.12.53,0,.8-.05,0-.25,0-.6-.13-.72A19.13,19.13,0,0,0,148.23,150.77Zm-98.2,11,.21.09,1.51-2.12-1-1ZM67.57,51.64l.4-.34a15.63,15.63,0,0,0-1.17-1.6c-.13-.14-.55,0-.83,0,0,.27,0,.64.13.79A14.79,14.79,0,0,0,67.57,51.64Zm4.64,122.27.55.68,2.79-1.88-.6-.78Zm-1.67-63-2.67,0v.35l1.86.92Zm75.72,70.51-1.93.26,1.39,1.85ZM179.18,116l-2.7,1.22a11.12,11.12,0,0,0,1.57.11C179.33,117.6,179.35,116.94,179.18,116Zm-42.56,73.47.37.07c.57-.74,1.4-1.43.65-2.44l-.53-.11Zm-57.91-7.17-.36-.6-3.29,2.2.22.36Zm70.54-81.48.55-.28c-.65-1.13-1.31-2.26-2-3.39l-.37.2Zm88,3.09.07.5c.94.32,1.86.52,2.49-.8Zm-54.7,58-.51.38c.48.58.94,1.16,1.44,1.71.05,0,.4-.05.45-.14s.15-.55,0-.67C183.56,162.69,183.06,162.29,182.58,161.87ZM102.18,171l-.28-.08-2.21,1.47,1.61.4ZM167,121.19l2.85.9C170,120.83,169.5,120.63,167,121.19ZM65.19,142.48l-.35-.54-2.9,1.78.28.47Zm150-12.11.42.09,1.17-2-.4-.35a5.26,5.26,0,0,0-1,1A3.6,3.6,0,0,0,215.2,130.37Zm7.7-32.89-1,1.86,1.83.14a7.87,7.87,0,0,0-.22-.81C223.37,98.36,223.2,98.06,222.9,97.48ZM50.21,156.17c1-.77.63-1.67-1-2.4Zm93.13,17-.45.06c-.68,1.18-.58,1.64.73,2.1ZM255.59,78.88c2.13.73,3.39.58,3.44-.31ZM240.05,99.59l0,.53a1.75,1.75,0,0,0,2.48-.64Zm7.7-18.24c-1.51-1-1.86-.89-2.3.68ZM77.6,28l.49,3L78.91,29Zm64.53,133.46.45,0c.6-.91.55-1.7-.71-2.65C142,159.92,142.05,160.71,142.13,161.49ZM203,108.93l.14.53,3.59-.56-.07-.4Zm50.57-22.28,0-.33-4.25.28,0,.48Zm-16.37-8.48-.42-.53-2,1.55.36.48Zm-99.47,72.22-.7.14.27,1.85c.26-.19.72-.38.73-.59A5.49,5.49,0,0,0,137.77,150.39Zm1.85,14.94.69,1.93C141.08,165.67,141.08,165.67,139.62,165.33Zm75-33.66-.25-.27-2.18,1.19.64.71a8.46,8.46,0,0,0,1-.69A8.09,8.09,0,0,0,214.65,131.67Zm28.93-31.62.24.31a18.22,18.22,0,0,0,1.56-1.18c.14-.13.08-.5.11-.76-.26.06-.62,0-.78.21A15.64,15.64,0,0,0,243.58,100.05Zm-80.51,38.58.59-.49-1.52-1.71-.52.44Zm-33.51,67.52,1.9-1.83-2.2.33a3.48,3.48,0,0,0-.07.64A4.46,4.46,0,0,0,129.56,206.15Zm86-78.77c2,.52,2.23.41,2.41-1Zm-26.77,24,.37-.43-2-1.73-.34.38Zm-16.95-42.59.14-.67-1.78-.39a4.48,4.48,0,0,0-.07.72C170.72,108.58,171.3,108.67,171.87,108.77ZM48.94,165.21l-.65-.27-.86,2.18.5.21Zm118.49-34.83-2.32-.83C166.06,131.05,166.71,131.22,167.43,130.38ZM135.26,93.92l1.43,2.73A2,2,0,0,0,135.26,93.92Zm6.71,78.8-.36,0-.32,2.55.55.05Zm-51.18-.91c1.33-.53.37-1.39.53-2.23C89.56,170.12,91.16,171.15,90.79,171.81Zm65.09-34.68-.5.17.76,2.06C157.14,138.19,156.52,137.66,155.88,137.13Zm-65.71-.33.17.48,3.07-1.15-.12-.36Zm36.72,8.83.65-.31-.86-1.93-.56.23ZM256.16,74.17l0-.67-2.48,0v.56Zm-157,99.45c-1.2.36-1.53,1.08-1,2.45ZM55.59,79.94l.54-.07-.57-3.13-.42.07Zm-.72-18,.05.43c.38.07,1,.32,1.08.19a3.89,3.89,0,0,0,.42-1.3l-.33-.17ZM54.28,73c1.44-.59,1.78-1.33,1.19-2.51Z" transform="translate(-9.04 -10.18)"/><path d="M127.25,220.93a57,57,0,0,1-.3,13.88,12,12,0,0,0,1.2,7.95,1.44,1.44,0,0,1,.13.89c-.23,1.34.44,2,1.64,2.28,1.44.35,2.05.07,2.68-1.24,1.16-2.42,1-5,1-7.59,0-1.79-.37-3.59-.54-5.39a3,3,0,0,1,.31-1.76,32.48,32.48,0,0,1,.94,4.63,70.69,70.69,0,0,1,0,7.84,6.55,6.55,0,0,1-1,2.85,3.16,3.16,0,0,1-5.48.16c-.77-1.24-1-2.8-1.62-4.15-1.47-3.31.13-6.53.19-9.8,0-2.52.38-5,.51-7.57a23.16,23.16,0,0,0-.17-3Z" transform="translate(-9.04 -10.18)"/><path d="M170.48,185.34c-1.09,2.42-1.88,2.8-3.95,2.45a11.39,11.39,0,0,0-6.91,1.37c-3.79,1.8-5.5,5.33-7.18,8.87a2.38,2.38,0,0,1-.79,1c1.42-3,2.21-6.51,5-8.59,3-2.29,6.4-4.21,10.57-3a2.5,2.5,0,0,0,1.65-.52A12,12,0,0,0,170.48,185.34Z" transform="translate(-9.04 -10.18)"/><path d="M132.83,229.23a12.24,12.24,0,0,1,0-2.18c.68-3.9.08-7.78,0-11.67-.05-1.9.06-3.81.13-5.72a1.89,1.89,0,0,1,.41-.92C133.09,215.59,134.5,222.42,132.83,229.23Z" transform="translate(-9.04 -10.18)"/><path d="M177.88,173.64a7.17,7.17,0,0,1-.59.94s-.51-.16-.51-.26a1.9,1.9,0,0,1,.18-1.07c1-1.48,2.63-1.63,4.21-1.89C181.42,172.88,180.1,173.75,177.88,173.64Z" transform="translate(-9.04 -10.18)"/><path d="M134.25,206.76a12.46,12.46,0,0,1,8.47-4l.16.44a37.07,37.07,0,0,0-4.48,1.26A37.62,37.62,0,0,0,134.25,206.76Z" transform="translate(-9.04 -10.18)"/><path d="M149.75,200.69c-1.52,2.81-3.46,3.5-6.33,2.21.44-.09,1-.38,1.31-.24,1.82.7,3.08,0,4.22-1.36A4.44,4.44,0,0,1,149.75,200.69Z" transform="translate(-9.04 -10.18)"/><path d="M155.75,94.81c-.09,1.74-.19,3.48-.29,5.22l-.35,0L155,94.77Z" transform="translate(-9.04 -10.18)"/><path d="M127.46,220.42c-1-.56-1.07-1.63-.19-3.1Z" transform="translate(-9.04 -10.18)"/><path d="M78.68,161.12l7.21-3.88c-.21.44-.24.64-.34.7C83.69,159,81.84,160,80,161a3.44,3.44,0,0,1-1.3.12Z" transform="translate(-9.04 -10.18)"/><path d="M86,162.48l-1,.31c0-.13,0-.25.07-.27,1-.53,1.54-1.86,3.29-1.35l-2.65,2.37-.2-.17Z" transform="translate(-9.04 -10.18)"/><path d="M78.51,144.82l-3.07,1.36-.22-.52,3.14-1.18Z" transform="translate(-9.04 -10.18)"/><path d="M108.44,99.5l-1.06.32c.45,1.19,1.48.9,2.26,1.06s1.72.23,2.64.35c-1.36,2.23-3.3.65-5.28.93l1.61,1.12-.06.21-3.3-.63c.51,1.44.51,1.44,4.17,2.08l-6.74-.13.23-1.78,1.44.33-.17-1.52,1.67.5.2-.34-1.83-1.28a8.86,8.86,0,0,0,.55-1.65,10.31,10.31,0,0,0-.08-1.79l1.52.29c-.35-1.77.74-2.45,2.67-1.89.8,2.42,3.33,2,4.94,3.28-2.64.73-4.4-1.18-6.78-1.42Z" transform="translate(-9.04 -10.18)"/></svg>